<?xml version="1.0" encoding="UTF-8"?>
<svg id="Layer_1" data-name="Layer 1" xmlns="http://www.w3.org/2000/svg" viewBox="0 0 1564.83 1586.66">
  <defs>
    <style>
      .cls-1 {
        fill: #fff;
      }
    </style>
  </defs>
  <g>
    <path class="cls-1" d="m256.95,1031.46h48.92c1.93,0,3.59.7,5,2.1,1.4,1.41,2.1,3.07,2.1,5v169.9c0,1.93-.7,3.6-2.1,5s-3.07,2.1-5,2.1h-42.34c-4.21,0-7.72-1.84-10.52-5.52l-57.33-73.11v71.54c0,1.93-.7,3.6-2.1,5s-3.07,2.1-5,2.1h-48.92c-1.93,0-3.6-.7-5-2.1-1.41-1.4-2.1-3.07-2.1-5v-169.9c0-1.93.7-3.59,2.1-5s3.07-2.1,5-2.1h42.61c4.21,0,7.63,1.75,10.26,5.26l57.33,79.16v-77.32c0-1.93.7-3.59,2.1-5,1.4-1.4,3.07-2.1,5-2.1Z"/>
    <path class="cls-1" d="m544.93,1107.87v31.28c0,17.61-4.38,32.32-13.15,44.11-8.77,11.79-20.25,20.17-34.45,25.13-14.2,4.96-30.95,7.43-50.23,7.43s-36.03-2.48-50.23-7.43-25.69-13.33-34.45-25.13c-8.77-11.79-13.15-26.67-13.15-44.62v-30.26c0-25.81,9.07-45.13,27.22-57.95,18.15-12.82,41.69-19.23,70.62-19.23s52.47,6.41,70.62,19.23c18.15,12.82,27.22,31.97,27.22,57.44Zm-124.66-4.25v39.79c0,6.8,2.41,12.02,7.23,15.67,4.82,3.65,11.35,5.47,19.59,5.47s14.77-1.86,19.59-5.59c4.82-3.73,7.23-9,7.23-15.79v-39.29c0-6.8-2.41-12.06-7.23-15.79-4.82-3.73-11.35-5.6-19.59-5.6s-14.77,1.82-19.59,5.47c-4.82,3.65-7.23,8.87-7.23,15.67Z"/>
    <path class="cls-1" d="m579.91,1031.46h181.47c1.93,0,3.59.7,5,2.1,1.4,1.41,2.1,3.07,2.1,5v42.34c0,1.93-.7,3.6-2.1,5s-3.07,2.1-5,2.1h-56.54v120.46c0,1.93-.7,3.6-2.1,5s-3.07,2.1-5,2.1h-54.18c-1.93,0-3.6-.7-5-2.1-1.41-1.4-2.1-3.07-2.1-5v-120.46h-56.54c-1.93,0-3.6-.7-5-2.1-1.41-1.4-2.1-3.07-2.1-5v-42.34c0-1.93.7-3.59,2.1-5s3.07-2.1,5-2.1Z"/>
    <path class="cls-1" d="m1193.62,1117.92c12.18,8.72,18.28,21.8,18.28,39.24s-8.86,31.58-26.56,42.42c-17.71,10.84-41.21,16.25-70.48,16.25s-52.03-5.34-68.25-16.02c-16.22-10.68-24.33-23.84-24.33-39.48,0-3.82,2.01-5.73,6.05-5.73h53.92c3.68,0,6.66,1.08,8.94,3.23,4.91,4.48,13.41,6.71,25.51,6.71,16.65,0,24.98-2.45,24.98-7.36,0-3.05-2.63-5.46-7.89-7.24-5.26-1.78-15.69-3.51-31.3-5.21-49.62-5.75-74.43-24.13-74.43-55.11,0-17.44,7.98-31.54,23.93-42.29,15.95-10.75,37.3-16.13,64.04-16.13s48.35,5.78,64.83,17.35c16.48,11.56,24.72,23.78,24.72,36.65,0,1.74-.57,3.13-1.71,4.17-1.14,1.04-2.67,1.57-4.6,1.57h-56.54c-3.16,0-5.88-1-8.15-2.98-4.21-3.64-10.52-5.47-18.94-5.47-11.75,0-17.62,2.37-17.62,7.11,0,2.54,2.28,4.53,6.84,5.97,4.56,1.44,13.68,2.92,27.35,4.45,28.75,3.22,49.22,9.18,61.41,17.9Z"/>
    <path class="cls-1" d="m1439.12,1107.87v31.28c0,17.61-4.38,32.32-13.15,44.11-8.77,11.79-20.25,20.17-34.45,25.13-14.2,4.96-30.95,7.43-50.23,7.43s-36.03-2.48-50.23-7.43c-14.2-4.96-25.69-13.33-34.45-25.13-8.77-11.79-13.15-26.67-13.15-44.62v-30.26c0-25.81,9.07-45.13,27.22-57.95,18.15-12.82,41.69-19.23,70.62-19.23s52.47,6.41,70.62,19.23c18.15,12.82,27.22,31.97,27.22,57.44Zm-124.66-4.25v39.79c0,6.8,2.41,12.02,7.23,15.67,4.82,3.65,11.35,5.47,19.59,5.47s14.77-1.86,19.59-5.59c4.82-3.73,7.23-9,7.23-15.79v-39.29c0-6.8-2.41-12.06-7.23-15.79-4.82-3.73-11.35-5.6-19.59-5.6s-14.77,1.82-19.59,5.47c-4.82,3.65-7.23,8.87-7.23,15.67Z"/>
    <path class="cls-1" d="m62.07,1531.16H12.36c-1.58,0-2.94-.57-4.08-1.71-1.14-1.14-1.71-2.24-1.71-3.29s.09-1.84.26-2.37l57.33-168.06c1.58-5.79,5.52-8.68,11.83-8.68h73.11c6.31,0,10.26,2.89,11.83,8.68l57.33,168.06c.17.53.26,1.32.26,2.37s-.57,2.15-1.71,3.29c-1.14,1.14-2.5,1.71-4.08,1.71h-49.71c-5.61,0-9.56-2.98-11.83-8.94l-6.58-18.41h-64.17l-6.58,18.41c-2.28,5.96-6.23,8.94-11.83,8.94Zm69.17-78.64l-18.67-54.7-18.67,54.7h37.35Z"/>
    <path class="cls-1" d="m300.61,1531.16h-36.82c-3.33,0-6.09-1.01-8.28-3.02-2.19-2.01-3.46-4.34-3.81-6.97l-22.88-167.53v-.79c0-1.58.57-2.93,1.71-4.08,1.14-1.14,2.5-1.71,4.08-1.71h45.24c3.5,0,6.35,1.05,8.55,3.16,2.19,2.1,3.46,4.73,3.81,7.89l8.42,80.48,15.25-41.82c.53-1.75,1.8-3.46,3.81-5.13,2.01-1.66,4.6-2.5,7.76-2.5h17.88c3.16,0,5.74.83,7.76,2.5,2.01,1.67,3.29,3.38,3.81,5.13l15.25,41.82,8.42-80.48c.35-3.16,1.62-5.79,3.81-7.89,2.19-2.1,5.04-3.16,8.55-3.16h45.24c1.58,0,2.93.57,4.08,1.71,1.14,1.14,1.71,2.5,1.71,4.08v.79l-22.88,167.53c-.35,2.63-1.62,4.96-3.81,6.97-2.19,2.02-4.96,3.02-8.28,3.02h-36.82c-3.16,0-5.75-.79-7.76-2.37-2.02-1.58-3.29-3.16-3.81-4.73l-24.2-55.49-24.2,55.49c-.53,1.58-1.8,3.16-3.81,4.73-2.02,1.58-4.6,2.37-7.76,2.37Z"/>
    <path class="cls-1" d="m539.15,1479.88h104.94c1.93,0,3.59.7,5,2.1,1.4,1.41,2.1,3.07,2.1,5v37.08c0,1.93-.7,3.6-2.1,5s-3.07,2.1-5,2.1h-166.22c-1.93,0-3.6-.7-5-2.1-1.41-1.4-2.1-3.07-2.1-5v-169.9c0-1.93.7-3.59,2.1-5s3.07-2.1,5-2.1h163.59c1.93,0,3.59.7,5,2.1,1.4,1.41,2.1,3.07,2.1,5v37.08c0,1.93-.7,3.6-2.1,5s-3.07,2.1-5,2.1h-102.31v16.57h87.84c1.93,0,3.59.7,5,2.1,1.4,1.41,2.1,3.07,2.1,5v34.19c0,1.93-.7,3.6-2.1,5-1.41,1.41-3.07,2.1-5,2.1h-87.84v16.57Z"/>
    <path class="cls-1" d="m858.29,1433.52c12.18,8.72,18.28,21.8,18.28,39.24s-8.86,31.58-26.56,42.42c-17.71,10.84-41.21,16.25-70.48,16.25s-52.03-5.34-68.25-16.02c-16.22-10.68-24.33-23.84-24.33-39.48,0-3.82,2.01-5.73,6.05-5.73h53.92c3.68,0,6.66,1.08,8.94,3.23,4.91,4.48,13.41,6.71,25.51,6.71,16.66,0,24.98-2.45,24.98-7.36,0-3.05-2.63-5.46-7.89-7.24-5.26-1.78-15.69-3.51-31.3-5.21-49.62-5.75-74.43-24.13-74.43-55.12,0-17.44,7.98-31.54,23.93-42.29,15.95-10.75,37.3-16.13,64.04-16.13s48.35,5.78,64.83,17.35c16.48,11.56,24.72,23.78,24.72,36.65,0,1.74-.57,3.13-1.71,4.17-1.14,1.04-2.67,1.57-4.6,1.57h-56.54c-3.16,0-5.88-1-8.15-2.98-4.21-3.64-10.52-5.47-18.94-5.47-11.75,0-17.62,2.37-17.62,7.11,0,2.54,2.28,4.53,6.84,5.97,4.56,1.44,13.68,2.92,27.35,4.45,28.75,3.22,49.22,9.18,61.41,17.91Z"/>
    <path class="cls-1" d="m1103.8,1423.47v31.28c0,17.61-4.38,32.32-13.15,44.11-8.77,11.79-20.25,20.17-34.45,25.13-14.2,4.96-30.95,7.43-50.23,7.43s-36.03-2.48-50.23-7.43c-14.2-4.96-25.69-13.33-34.45-25.13-8.77-11.79-13.15-26.67-13.15-44.62v-30.26c0-25.81,9.07-45.13,27.22-57.95s41.69-19.23,70.62-19.23,52.47,6.41,70.62,19.23c18.15,12.82,27.22,31.97,27.22,57.44Zm-124.66-4.25v39.79c0,6.8,2.41,12.02,7.23,15.67,4.82,3.65,11.35,5.47,19.59,5.47s14.77-1.86,19.59-5.59c4.82-3.73,7.23-9,7.23-15.79v-39.29c0-6.8-2.41-12.06-7.23-15.79-4.82-3.73-11.35-5.6-19.59-5.6s-14.77,1.82-19.59,5.47c-4.82,3.65-7.23,8.87-7.23,15.67Z"/>
    <path class="cls-1" d="m1275.28,1347.06h48.13c1.93,0,3.59.7,5,2.1,1.4,1.41,2.1,3.07,2.1,5v169.9c0,1.93-.7,3.6-2.1,5-1.4,1.41-3.07,2.1-5,2.1h-47.6c-1.93,0-3.6-.7-5-2.1-1.41-1.4-2.11-3.07-2.11-5v-81.53l-19.2,37.87c-1.05,2.1-2.63,3.73-4.73,4.87-2.11,1.14-4.21,1.71-6.31,1.71h-17.88c-2.98,0-5.44-.79-7.36-2.37-1.93-1.58-3.16-2.98-3.68-4.21l-19.2-37.87v81.53c0,1.93-.7,3.6-2.1,5-1.41,1.41-3.07,2.1-5,2.1h-47.6c-1.93,0-3.6-.7-5-2.1-1.41-1.4-2.1-3.07-2.1-5v-169.9c0-1.93.7-3.59,2.1-5,1.4-1.4,3.06-2.1,5-2.1h48.13c4.91,0,8.68,2.37,11.31,7.1l34.45,63.12,34.45-63.12c2.63-4.73,6.4-7.1,11.31-7.1Z"/>
    <path class="cls-1" d="m1433.33,1479.88h104.94c1.93,0,3.59.7,5,2.1,1.4,1.41,2.1,3.07,2.1,5v37.08c0,1.93-.7,3.6-2.1,5-1.41,1.41-3.07,2.1-5,2.1h-166.21c-1.93,0-3.6-.7-5-2.1-1.41-1.4-2.1-3.07-2.1-5v-169.9c0-1.93.7-3.59,2.1-5,1.4-1.4,3.07-2.1,5-2.1h163.59c1.93,0,3.59.7,5,2.1,1.4,1.41,2.1,3.07,2.1,5v37.08c0,1.93-.7,3.6-2.1,5-1.41,1.41-3.07,2.1-5,2.1h-102.31v16.57h87.84c1.93,0,3.59.7,5,2.1,1.4,1.41,2.1,3.07,2.1,5v34.19c0,1.93-.7,3.6-2.1,5-1.41,1.41-3.07,2.1-5,2.1h-87.84v16.57Z"/>
  </g>
  <path class="cls-1" d="m198.75,442.4l38.85-143.74-12.33-3.3h-1.17c-6.91-2.07-12.76-6.73-16.32-13.01h0c-3.61-6.3-4.62-13.75-2.82-20.78h0l22.92-85.76h0v-1.36c2.12-6.52,6.58-12.02,12.53-15.44,6.23-3.62,13.64-4.59,20.59-2.72h0l12.33,3.3,39.24-141.99h0c.18-.57.41-1.12.68-1.65,1.75-4.87,5.2-8.94,9.71-11.46h0c4.82-2.77,10.53-3.57,15.93-2.23h0l46.72,12.53c6.37,1.58,10.27,8,8.74,14.37h0l-118.59,443.95c-1.71,6.34-8.22,10.12-14.57,8.45h0l-47.01-12.53h-1.36c-4.92-1.74-9.05-5.19-11.65-9.71h0c-2.84-4.87-3.65-10.66-2.23-16.12h0l-.19-.78Zm119.46,32.83c83.24-28.46,74.11-113.83,104.12-122.28,46.43,26.53,99.6,38.88,152.97,35.55l-.58-1.46c-.64-8.16.08-16.36,2.14-24.28,2.01-8.66,5.28-16.97,9.71-24.67,12.92-15.44,32.54-25.35,51.09-19.42h0l56.72,23.21,84.79,31.57c11.65,4.76,21.85,9.13,28.26,6.02,13.79-6.51,26.51-20.69,41.28-37.39,33.31-37.49,76.05-85.86,167.73-91.78l23.31-1.94c20.1-1.94,41.28-4.18,61.29-4.18,41.13-3.39,82.31,5.9,118.01,26.61,37.78,21.37,66.82,58.27,97.12,89.06l63.62,64.39c28.46,34.38,0,79.25-40.69,82.46-32.54,2.53-46.72-21.27-67.99-42.83l-27.58-27.87c-20.69-20.69-55.46-64.78-78.96-75.08-12.24-5.34-27.19-1.55-40.11-.87l36.13,182.01c.89,5.23,1.35,10.53,1.36,15.83-.04,13.64-2.99,27.12-8.64,39.53-7,15.19-16.01,29.37-26.81,42.15,17.19,57.11,40.6,128.88,65.07,198.81,11.75,33.8,23.89,67.99,35.64,99.07h-126.84l-22.63-56.72c-24.09-63.13-46.43-129.37-63.13-184.54-22.63,6.22-41.37,13.89-64.39,21.46-16.5,5.19-32.71,11.25-48.56,18.16-11.85,5.34-19.42,35.16-20.2,46.43-.87,15.73,0,97.12,1.46,154.82h-117.23c-1.17-51.57-2.04-155.4,0-173.27,11.46-101.88,64.78-126.94,129.66-157.15,20.85-10.14,41-21.66,60.31-34.48l-25.25-148.02-2.82,3.01c-9.13,9.91-18.86,19.25-29.14,27.97-27.22,23.71-62.09,36.82-98.19,36.91-10.91,0-21.78-1.17-32.44-3.5-12.63-3.21-25.35-6.7-37.88-10.59-12.53-3.88-24.96-8.16-37.2-12.72-22.19-7.41-43.78-16.5-64.59-27.19-27.39,29.14-74.2,49.92-78.18,84.4-26.9-12.63-68.67,5.24-114.31,7.48h240.77c6.28.59,12.17,3.29,16.71,7.67,4.81,4.62,7.55,11,7.58,17.68.05.45.05.91,0,1.36v.97l-33.02,354.02h0v2.62h0c0,1.46-.58,2.91-.97,4.18h0c-.53,1.54-1.18,3.03-1.94,4.47-4.41,8.77-13.4,14.3-23.21,14.28h-326.24c-1.98-.07-3.94-.4-5.83-.97-1.85-.53-3.64-1.24-5.34-2.14h0c-8.14-4.68-13.44-13.08-14.18-22.44l-32.54-353.92v-2.23h0c.03-6.67,2.76-13.05,7.58-17.68,4.54-4.43,10.48-7.15,16.8-7.67h135.97c-33.12-1.75-67.99-14.47-99.36-54.68l-.19-.19ZM1019.16,5.92c-11.48-3.91-23.52-5.91-35.64-5.92-60.67.03-109.82,49.24-109.79,109.9.03,60.67,49.24,109.82,109.9,109.79s109.82-49.24,109.79-109.9c-.02-46.93-29.86-88.66-74.26-103.87Zm-436.38,602.17h-26.51v250.38h26.51v-250.38Zm-86.25,0h-26.51v250.38h26.51v-250.38Zm-86.25,0h-26.51v250.38h26.51s0-250.38,0-250.38Zm263.69-54.49h-390.44c-.76.12-1.47.46-2.04.97-.05.26-.05.52,0,.78h0v.58l32.44,353.63h0c.05,1.48.81,2.86,2.04,3.69h324.98c1.02-.09,1.91-.72,2.33-1.65v-2.43h0l32.92-353.53v-.49c.05-.26.05-.52,0-.78-.58-.5-1.29-.83-2.04-.97l-.19.19Zm0,0,2.43,2.33,23.7,1.65-436.77-264.27l-41.08,153.46,33.22,8.84L368.23,34.67l-33.22-8.94-40.5,151.12h0c-1.65,6.33-8.12,10.13-14.45,8.48-.04-.01-.08-.02-.12-.03l-23.6-6.22h0c-.9-.38-1.92-.38-2.82,0-.75.45-1.33,1.13-1.65,1.94h0l-23.5,86.54h0c-.38.9-.38,1.92,0,2.82h0c.41.74,1.06,1.32,1.85,1.65h0l23.89,6.41c6.32,1.7,10.07,8.2,8.37,14.52,0,.02,0,.03-.01.05l.87.29Z"/>
</svg>